<?xml version="1.0" encoding="UTF-8" standalone="no"?>
<svg viewBox="0 0 249.04158 249.04156" xmlns="http://www.w3.org/2000/svg" xmlns:xlink="http://www.w3.org/1999/xlink">
<defs>
<linearGradient gradientUnits="userSpaceOnUse" id="linearGradient3954" x1="13.72582" x2="28.78295" y1="-280.61076" y2="-268.46989">
<stop offset="0" stop-color="#eeeeec"/>
<stop offset="1" stop-color="#2e3436"/>
</linearGradient>
<linearGradient id="linearGradient3829">
<stop offset="0" stop-color="#989a96"/>
<stop offset="1" stop-color="#eeeeec"/>
</linearGradient>
<linearGradient gradientUnits="userSpaceOnUse" id="linearGradient3850" x1="315.57341" x2="368.25465" y1="544.52599" y2="576.34578">
<stop offset="0" stop-color="#888a85"/>
<stop offset="1" stop-color="#eeeeec"/>
</linearGradient>
<linearGradient gradientUnits="userSpaceOnUse" id="linearGradient3859" x1="314.37258" x2="431.37258" y1="513.08002" y2="664.58002">
<stop offset="0" stop-color="#d3d7cf"/>
<stop offset="1" stop-color="#babdb6"/>
</linearGradient>
<linearGradient gradientUnits="userSpaceOnUse" id="linearGradient3905" x1="-29" x2="175">
<stop offset="0" stop-color="#888a85"/>
<stop offset="1" stop-color="#888a85" stop-opacity="0"/>
</linearGradient>
<linearGradient gradientTransform="matrix(-.87659,.5061,.5061,.87659,464.45426,536.91292)" gradientUnits="userSpaceOnUse" id="linearGradient3839" x1="62.5" x2="187.5" xlink:href="#linearGradient3829" y1="-148.13782" y2="58.86218"/>
<linearGradient gradientTransform="matrix(.86603,-.5,.5,.86603,272.5497,647.2074)" gradientUnits="userSpaceOnUse" id="linearGradient3835" x1="62.5" x2="187.5" xlink:href="#linearGradient3829" y1="-148.13782" y2="58.86218"/>
</defs>
<g transform="translate(-225.47921,-436.83446)">
<path d="m174-458.63782c0,55.78076-45.21924,101-101,101s-101-45.21924-101-101 45.21924-101 101-101 101,45.21924 101,101z" fill="#2e3436" transform="matrix(.85294,0,0,.85294,288.88962,955.9584)"/>
<path d="m174-458.63782c0,55.78076-45.21924,101-101,101s-101-45.21924-101-101 45.21924-101 101-101 101,45.21924 101,101z" fill="none" stroke="url(#linearGradient3905)" stroke-linejoin="round" stroke-width="2" transform="matrix(.65162,.36922,-.36922,.65162,134.95539,833.84433)"/>
<path d="m174-458.63782c0,55.78076-45.21924,101-101,101s-101-45.21924-101-101 45.21924-101 101-101 101,45.21924 101,101z" fill="none" stroke="url(#linearGradient3905)" stroke-linejoin="round" stroke-width="2" transform="matrix(.59735,.33847,-.33847,.59735,153.02165,811.19713)"/>
<path d="m174-458.63782c0,55.78076-45.21924,101-101,101s-101-45.21924-101-101 45.21924-101 101-101 101,45.21924 101,101z" fill="none" stroke="url(#linearGradient3905)" stroke-linejoin="round" stroke-width="2" transform="matrix(.53704,.3043,-.3043,.53704,173.09528,786.03357)"/>
<path d="m174-458.63782c0,55.78076-45.21924,101-101,101s-101-45.21924-101-101 45.21924-101 101-101 101,45.21924 101,101z" fill="none" stroke="url(#linearGradient3905)" stroke-linejoin="round" stroke-width="2" transform="matrix(.45865,.25988,-.25988,.45865,199.19099,753.32094)"/>
<path d="m349.55778,440.37347c-67.26039,0-121.78125,54.52086-121.78125,121.78125s54.52086,121.78125 121.78125,121.78125 121.78125-54.52086 121.78125-121.78125-54.52086-121.78125-121.78125-121.78125zm0,15.75c14.40293,0 26.09375,11.65957 26.09375,26.0625s-11.69082,26.09375-26.09375,26.09375-26.09375-11.69082-26.09375-26.09375 11.69082-26.0625 26.09375-26.0625zm-69.8125,39.96875c4.61139-.10641 9.30606.99325 13.59375,3.46875 12.47331,7.20146 16.76396,23.18295 9.5625,35.65625s-23.18295,16.73271-35.65625,9.53125-16.70147-23.12045-9.5-35.59375c4.72596-8.18561 13.19645-12.85937 22-13.0625zm138.3125,0c9.25356-.23881 18.3615,4.48711 23.3125,13.0625 7.20147,12.4733 2.91081,28.42352-9.5625,35.625s-28.42353,2.94206-35.625-9.53125-2.94207-28.48604 9.53125-35.6875c3.89791-2.25046 8.13758-3.3602 12.34375-3.46875zm-79.375,39.625c2.83245-.0736 5.63993,1.37366 7.15625,4 2.20556,3.82013.88263,8.70069-2.9375,10.90625s-8.70069.91389-10.90625-2.90625-.91388-8.73195 2.90625-10.9375c1.19379-.68924 2.49377-1.02906 3.78125-1.0625zm21.34375,0c1.41078-.0301 2.84308.30433 4.15625,1.0625 3.82014,2.20555 5.14306,7.11737 2.9375,10.9375s-7.08612,5.11181-10.90625,2.90625-5.14307-7.08612-2.9375-10.90625c.68923-1.19379 1.65171-2.13983 2.75-2.8125 1.2081-.73997 2.58922-1.15735 4-1.1875zm-31.75,18.4375c4.41111-1e-005 7.96875,3.58889 7.96875,8s-3.55763,8-7.96875,8-8-3.58889-8-8c0-3.03264 1.66648-5.67877 4.15625-7.03125 1.13171-.61478 2.46528-.96876 3.84375-.96875zm42.5625,0c4.41111,0 8,3.58889 8,8s-3.58889,8.00001-8,8-7.96876-3.58889-7.96875-8c-1e-005-3.03263 1.69773-5.67876 4.1875-7.03125 1.1317-.61477 2.40278-.96875 3.78125-.96875zm-32.09375,18.46875c1.41798-.0343 2.84308.30434 4.15625,1.0625 3.82012,2.20555 5.14307,7.08612 2.9375,10.90625s-7.08612,5.14307-10.90625,2.9375-5.14305-7.11737-2.9375-10.9375c.68924-1.1938 1.62046-2.10859 2.71875-2.78125 1.2081-.73997 2.61327-1.15319 4.03125-1.1875zm21.25,0c2.83245-.0736 5.60868,1.3424 7.125,3.96875 2.20555,3.82013.91388,8.73194-2.90625,10.9375s-8.73195.88264-10.9375-2.9375-.88263-8.70069 2.9375-10.90625c1.19379-.68923 2.49377-1.02906 3.78125-1.0625zm-80.40625,3.40625c9.25356-.2388 18.36148,4.48711 23.3125,13.0625 7.20146,12.47332 2.91081,28.45479-9.5625,35.65625s-28.39229,2.87956-35.59375-9.59375-2.97332-28.42354 9.5-35.625c3.8979-2.25046 8.13759-3.39145 12.34375-3.5zm138.625,0c4.61542-.10407 9.30606,1.02449 13.59375,3.5 12.47331,7.20146 16.76397,23.1517 9.5625,35.625s-23.18294,16.76396-35.65625,9.5625-16.73272-23.18295-9.53125-35.65625c4.72596-8.18561 13.22-12.83255 22.03125-13.03125zm-68.65625,39.96875c14.40293,0 26.09375,11.69082 26.09375,26.09375s-11.69082,26.09375-26.09375,26.09375-26.09375-11.69082-26.09375-26.09375 11.69082-26.09375 26.09375-26.09375z" fill="url(#linearGradient3859)"/>
<path d="m349.54215,528.18596c-18.76612,0-33.96875,15.20263-33.96875,33.96875s15.20263,33.96876 33.96875,33.96876 34-15.20263 34-33.96876-15.23388-33.96875-34-33.96875zm-10.875,7.53125c2.83245-.0736 5.63993,1.37366 7.15625,4 2.20556,3.82013.88263,8.70069-2.9375,10.90625s-8.70069.91389-10.90625-2.90625-.91388-8.73195 2.90625-10.9375c1.19379-.68924 2.49377-1.02906 3.78125-1.0625zm21.34375,0c1.41078-.0302 2.84308.30433 4.15625,1.0625 3.82014,2.20555 5.14306,7.11737 2.9375,10.9375s-7.08612,5.11181-10.90625,2.90625-5.14307-7.08612-2.9375-10.90625c.68923-1.19379 1.65171-2.13983 2.75-2.8125 1.2081-.73997 2.58922-1.15735 4-1.1875zm-31.75,18.4375c4.41111-1e-005 7.96875,3.58889 7.96875,8s-3.55763,8-7.96875,8-8-3.58889-8-8c0-3.03264 1.66648-5.67877 4.15625-7.03125 1.13171-.61478 2.46528-.96876 3.84375-.96875zm42.5625,0c4.41111,0 8,3.58889 8,8s-3.58889,8.00001-8,8-7.96876-3.58889-7.96875-8c-1e-005-3.03263 1.69773-5.67876 4.1875-7.03125 1.1317-.61477 2.40278-.96875 3.78125-.96875zm-32.09375,18.46875c1.41798-.0343 2.84308.30434 4.15625,1.0625 3.82012,2.20555 5.14307,7.08612 2.9375,10.90625s-7.08612,5.14307-10.90625,2.9375-5.14305-7.11737-2.9375-10.9375c.68924-1.1938 1.62046-2.10859 2.71875-2.78125 1.2081-.73997 2.61327-1.15319 4.03125-1.1875zm21.25,0c2.83245-.0736 5.60868,1.3424 7.125,3.96875 2.20555,3.82013.91388,8.73194-2.90625,10.9375s-8.73195.88264-10.9375-2.9375-.88263-8.70069 2.9375-10.90625c1.19379-.68923 2.49377-1.02906 3.78125-1.0625z" fill="url(#linearGradient3850)"/>
<path d="m295.66946,462.12628c-.96676.0261-1.94417.29313-2.84375.8125-2.87867,1.662-3.88075,5.30883-2.21875,8.1875l32.1875,63.59375c-4.6199,4.63603-8.05462,10.46252-9.8125,16.96875l-71.15625,3.96875c-1.2465,0-2.4177.35432-3.375,1-1.59551,1.07613-2.625,2.9225-2.625,5 0,3.324 2.67599,6 6,6l71.15625,3.96875c1.75598,6.49919 5.1689,12.33518 9.78125,16.96875l-32.125,63.59375c-1.66201,2.87867-.69115,6.5255 2.1875,8.1875s6.52549.69117 8.1875-2.1875l38.96875-59.65625c3.13464.83269 6.44702,1.28125 9.84375,1.28125s6.67786-.44856 9.8125-1.28125l38.96875,59.65625c1.662,2.87867 5.34008,3.8495 8.21875,2.1875s3.8495-5.30883 2.1875-8.1875l-32.15625-63.59375c4.6127-4.63368 8.02518-10.46923 9.78125-16.96875l71.1875-3.96875c3.324,0 5.96875-2.676 5.96875-6s-2.64474-6-5.96875-6l-71.1875-3.96875c-1.75607-6.49952-5.16855-12.33507-9.78125-16.96875l32.15625-63.59375c1.66201-2.87867.65991-6.5255-2.21875-8.1875-1.9791-1.14263-4.31179-1.0507-6.125.0625-.82419.50598-1.51187,1.22542-2.03125,2.125l-39,59.65625c-3.13464-.83268-6.41577-1.28125-9.8125-1.28125-3.38321,0-6.68909.42372-9.8125,1.25l-39-59.625c-1.14262-1.97909-3.21687-3.05745-5.34375-3zm54.125,65.3125c18.89833,0 34.21875,15.32042 34.21875,34.21875s-15.32042,34.21875-34.21875,34.21875-34.1875-15.32042-34.1875-34.21875 15.28917-34.21875 34.1875-34.21875z" fill="none" opacity=".8" stroke="#eeeeec" stroke-linejoin="round" stroke-width="2"/>
<path d="m288.5,454.83412c-58.82999,33.96552-78.98664,109.19114-45.02113,168.02113s109.19113,78.98663 168.02113,45.02112 78.98663-109.19113 45.02112-168.02112-109.19113-78.98664-168.02112-45.02113zm1.5,2.59808c57.39511-33.13708 130.78596-13.47207 163.92305,43.92305s13.47206,130.78596-43.92305,163.92304-130.78596,13.47207-163.92305-43.92304-13.47207-130.78596 43.92305-163.92305z" fill="url(#linearGradient3835)"/>
<path d="m287.75,453.53509c59.54743-34.37973 135.69044-13.97727 170.07016,45.57016s13.97727,135.69043-45.57016,170.07016-135.69044,13.97727-170.07016-45.57016-13.97727-135.69044 45.57016-170.07016zm1.5183,2.62976c-58.09506,33.5412-77.9999,107.82705-44.4587,165.9221s107.82705,77.99989 165.92211,44.4587 77.99988-107.82705 44.45869-165.92211-107.82705-77.99988-165.9221-44.45869z" fill="url(#linearGradient3839)"/>
<path d="m387.62258,551.62404c-1.76995-6.49576-5.18991-12.34494-9.8125-16.96875l32-63.65625c1.65586-2.88221.66346-6.53165-2.21875-8.1875-.46555-.26746-.94486-.45882-1.4375-.59375m-18.53125,89.40625m-26.4375-27.84375-.625.96875c-3.13642-.82598-6.41578-1.25725-9.8125-1.25-3.3832.007-6.69086.4483-9.8125,1.28125l-39.125-59.56245c-1.14684-1.97665-3.217-3.03074-5.34375-2.96875-.9667.0282-1.94528.29121-2.84375.8125-.31994.18563-.63358.39421-.90625.625m113.4375-1.4688m-28.25,126.3125c4.60279-4.64352 8.00782-10.46549 9.75-16.96875l71.1875-4.125c3.324-.007 5.9446-2.70725 5.9375-6.03125s-2.64474-5.97585-5.96875-5.96875m-80.90625,33.09375m-27,11.28125c3.39672-.007 6.67964-.47312 9.8125-1.3125l39.09375,59.59375c1.66815,2.87511 5.34363,3.8244 8.21875,2.15625m-95.46875-88.59375 1.4375.0625c1.76986,6.49543 5.19026,12.3138 9.8125,16.9375l-31.96875,63.65625c-1.65586,2.88221-.69469,6.53165 2.1875,8.1875m29.71875-125.74995v.0312c-4.60998,4.64589-8.03727,10.49003-9.78125,17l-71.15625,4.09375c-1.2465.003-2.41908.38353-3.375,1.03125-1.59321,1.07954-2.59819,2.9225-2.59375,5 .00051.24019.004.48615.0312.71875m113.84375-35.18745c18.89829-.0404 34.24088,15.25796 34.28125,34.15625s-15.22671,34.24088-34.125,34.28125-34.20964-15.25796-34.25-34.15625 15.19546-34.24089 34.09375-34.28125z" fill="none" opacity=".8" stroke="#888a85" stroke-linejoin="round" stroke-width="2"/>
<g transform="translate(329.37258,838.21784)">
<path d="m62.2254-308.81836c0,6.24839-5.06532,11.31371-11.31371,11.31371s-11.31371-5.06532-11.31371-11.31371 5.06532-11.31371 11.31371-11.31371 11.31371,5.06532 11.31371,11.31371z" fill="#888a85" opacity=".5" transform="matrix(.76641,0,0,.76641,-16.85818,-37.35802)"/>
<path d="m62.2254-308.81836c0,6.24839-5.06532,11.31371-11.31371,11.31371s-11.31371-5.06532-11.31371-11.31371 5.06532-11.31371 11.31371-11.31371 11.31371,5.06532 11.31371,11.31371z" fill="#fff" transform="matrix(.68523,0,0,.68523,-14.48255,-65.06872)"/>
<path d="m20.35973-282.36053c-2.96786,0-5.36448,2.42456-5.36448,5.39242 0,2.53416 1.74688,4.63005 4.10718,5.19683v3.32486h2.5146v-3.32486c2.3603-.56678 4.10718-2.66267 4.10718-5.19683 0-2.96786-2.39662-5.39242-5.36447-5.39242z" fill="#2e3436"/>
<path d="m17.5869-268.81998c-1.26475-.45501-2.16957-1.03874-3.18671-2.05588-1.04733-1.04733-1.60049-1.91994-2.05558-3.24269-1.83987-5.34769 2.28286-11.14008 7.92895-11.14008 2.36333,0 4.40101.83221 6.03254,2.46375 1.68725,1.68724 2.47686,3.58512 2.47686,5.95326 0,2.40746-.79175,4.30464-2.52884,6.05955-.92399.93346-2.88762,2.02108-3.99082,2.21044l-.5927.10173v-1.57309-1.5731l.5927-.18398c2.10227-.6526 3.69318-3.16789 3.45723-5.46599-.20123-1.95994-1.41634-3.64332-3.2407-4.4896-1.25879-.58393-3.04376-.58642-4.28638-.006-2.79145,1.30386-3.98947,4.68218-2.61927,7.38614 .48126.94972 1.69988,2.08682 2.65819,2.48036l.75016.30807 .00059,1.541c.00068,1.76482.02989,1.73917-1.39622,1.22611h9e-006z" fill="url(#linearGradient3954)"/>
</g>
</g>
</svg>
